<svg id="Layer_1" data-name="Layer 1" xmlns="http://www.w3.org/2000/svg" viewBox="0 0 303 210"><defs><style>.cls-1{fill:#cc6066;}</style></defs><title>WimNaudts2</title><path d="M34.78,7.26C45.16,49.26,55.2,96.46,66,145.42c0,0,.95-3.62,2.52-9.75.79-3.06,1.73-6.76,2.79-10.93C82.06,89.48,93.75,52,99,11.64c9,5.27,23.08-1.29,24.1,3.92,9.19,31.35,21.86,59.12,28.54,89.62,3.31,13.45,7.65,25.06,9.95,38.15,4.7-25.11,9.29-48.51,14-72l1.72-8.59C183.56,31.37,189.41,5,189.42,5q13.79-.22,27.59-.4C202.19,51.46,189.62,110.5,175.85,174a152.18,152.18,0,0,1-28.7,10.6s-1.46-5-3.77-13.13c-1.16-4.07-2.53-8.94-4-14.4-5.16-26.22-10.72-54.09-24.22-77.44C106.9,103.34,95.2,126.43,89,149.71c-.78,3-1.51,5.91-2.22,8.67-4.23,16.59-7.3,28.07-7.29,28.07a146.41,146.41,0,0,1-28.72-9C35.6,113.72,22,54,6,7.29Q20.39,7.33,34.78,7.26Z"/><path class="cls-1" d="M174,14a185,185,0,0,1,13.8,16c2.82,3.61,6,7.84,9.39,12.6,22.43,32.52,40.54,80.9,68.39,102.43-6-28.14-1.2-56.79-.26-85.24,0-3.15,0-6.23,0-9.22,0-20.89,0-37,0-37A104.49,104.49,0,0,1,294,34V185a104.51,104.51,0,0,1-28,20,184.93,184.93,0,0,1-13.76-16c-2.82-3.59-6-7.79-9.54-12.49-25.1-29.62-50.5-70.62-68.28-102.58,0,27.37,0,54.68.32,82.72q.07,5.94.16,11.89c0,3,0,5.87,0,8.62,0,16.52,0,28.31,0,28.31A104.48,104.48,0,0,1,146,185V34A104.51,104.51,0,0,1,174,14Z"/></svg>